<svg id="Layer_1" data-name="Layer 1" xmlns="http://www.w3.org/2000/svg" viewBox="0 0 137.3 137.3"><defs><style>.cls-1{fill:none;stroke:#ffff53;stroke-linecap:round;stroke-miterlimit:10;stroke-width:6.42px;}.cls-2{fill:#0a0a32;}.cls-3{fill:aqua;}</style></defs><path class="cls-1" d="M35.25,102c7.38,7.38,28.31-1.59,46.76-20s27.41-39.38,20-46.76"/><path class="cls-1" d="M61.3,112.16c2.26,2.39,4.74,3.72,7.35,3.72"/><path class="cls-1" d="M68.65,21.42a8.28,8.28,0,0,0-3.81,1,13.37,13.37,0,0,0-3.54,2.75,24.39,24.39,0,0,0-3.21,4.36,41.78,41.78,0,0,0-2.8,5.76,65.09,65.09,0,0,0-2.31,7q-1,3.78-1.74,8c-.48,2.82-.85,5.79-1.1,8.86s-.38,6.26-.38,9.52"/><path class="cls-2" d="M68.65,103.47a34.82,34.82,0,1,1,34.82-34.82A34.87,34.87,0,0,1,68.65,103.47Z"/><path class="cls-3" d="M68.65,36.07A32.58,32.58,0,1,1,36.07,68.65,32.62,32.62,0,0,1,68.65,36.07m0-4.49a37.07,37.07,0,1,0,37.07,37.07A37.07,37.07,0,0,0,68.65,31.58Z"/><path class="cls-1" d="M68.65,115.88c10.43,0,18.89-21.15,18.89-47.23S79.08,21.42,68.65,21.42"/><path class="cls-1" d="M55.29,55.29C36.85,73.73,27.88,94.67,35.25,102"/><path class="cls-1" d="M66.14,45.71a114.81,114.81,0,0,0-10.85,9.58"/><path class="cls-1" d="M102,35.25c-1.84-1.84-4.53-2.66-7.82-2.57"/></svg>