<svg width="247" height="161" viewBox="0 0 247 161" fill="none" xmlns="http://www.w3.org/2000/svg">
<g clip-path="url(#clip0_2_195)">
<path d="M222.513 111.134C222.513 146.591 179.379 161 125.823 161C72.2666 161 28.5048 146.591 28.5048 111.134C28.5048 75.6762 71.9527 46.9844 125.509 46.9844C179.066 46.9844 222.513 75.7388 222.513 111.134Z" fill="#4BAF74"/>
<path d="M212.656 33.8288C212.656 15.1603 197.462 0 178.752 0C168.204 0 158.786 4.82374 152.57 12.3412C144.094 10.4619 135.053 9.39689 125.698 9.39689C116.342 9.39689 107.301 10.3992 98.8251 12.3412C92.5465 4.82374 83.1286 0 72.6434 0C53.9331 0 38.7389 15.1603 38.7389 33.8288C38.7389 39.9681 40.3714 45.6689 43.1967 50.6179C40.4969 56.3813 39.0529 62.5206 39.0529 68.9105C39.0529 101.8 77.8546 128.424 125.698 128.424C173.54 128.424 212.342 101.8 212.342 68.9105C212.342 62.5206 210.898 56.3813 208.198 50.6179C211.024 45.6689 212.656 39.9681 212.656 33.8288Z" fill="#32DA6D"/>
<path d="M69.9436 52.6227C81.3866 52.6227 90.6629 43.367 90.6629 31.9495C90.6629 20.5321 81.3866 11.2764 69.9436 11.2764C58.5006 11.2764 49.2242 20.5321 49.2242 31.9495C49.2242 43.367 58.5006 52.6227 69.9436 52.6227Z" fill="#F1F1E8"/>
<path d="M180.447 52.6227C191.89 52.6227 201.166 43.367 201.166 31.9495C201.166 20.5321 191.89 11.2764 180.447 11.2764C169.004 11.2764 159.727 20.5321 159.727 31.9495C159.727 43.367 169.004 52.6227 180.447 52.6227Z" fill="#F1F1E8"/>
<path d="M58.8932 158.494C63.351 158.494 66.8671 154.61 66.3648 150.225C64.544 134.689 56.8213 101.048 22.8541 80.8134C-22.3518 53.8757 13.4362 146.592 13.4362 146.592L4.08108 151.979C0.941784 153.796 2.26029 158.494 5.83909 158.494H58.8932Z" fill="#32DA6D"/>
<path d="M193.82 158.494C189.802 158.494 186.663 154.61 187.102 150.225C188.672 134.752 195.704 101.048 226.343 80.8134C267.217 53.8757 234.882 146.592 234.882 146.592L243.358 151.979C246.184 153.796 244.991 158.494 241.789 158.494H193.82Z" fill="#32DA6D"/>
<path d="M69.9436 35.7079C72.0241 35.7079 73.7107 34.0251 73.7107 31.9492C73.7107 29.8733 72.0241 28.1904 69.9436 28.1904C67.863 28.1904 66.1764 29.8733 66.1764 31.9492C66.1764 34.0251 67.863 35.7079 69.9436 35.7079Z" fill="#0D0D0D"/>
<path d="M180.447 35.7079C182.527 35.7079 184.214 34.0251 184.214 31.9492C184.214 29.8733 182.527 28.1904 180.447 28.1904C178.366 28.1904 176.68 29.8733 176.68 31.9492C176.68 34.0251 178.366 35.7079 180.447 35.7079Z" fill="#0D0D0D"/>
</g>
<defs>
<clipPath id="clip0_2_195">
<rect width="247" height="161" fill="white"/>
</clipPath>
</defs>
</svg>
