<?xml version="1.0" encoding="UTF-8"?>
<svg width="189px" height="38px" viewBox="0 0 189 38" version="1.1" xmlns="http://www.w3.org/2000/svg" xmlns:xlink="http://www.w3.org/1999/xlink">
    <title>D9B1E07F-251D-453B-B511-C8CEA92670C3</title>
    <g id="Cross-chain" stroke="none" stroke-width="1" fill="none" fill-rule="evenodd">
        <g id="LA2022-Flow-1" transform="translate(-23.000000, -13.000000)" fill-rule="nonzero">
            <g id="Group-3" transform="translate(24.000000, 14.000000)">
                <g id="Lunar-Assistantblack-background-Copy">
                    <ellipse id="Oval" stroke="#0A0A32" stroke-width="1.44963" fill="#FFFFFF" cx="18.0138177" cy="18" rx="18.0138177" ry="18"></ellipse>
                    <path d="M29.8105936,18 C29.8142263,15.8332747 29.2175523,13.707832 28.0866664,11.8591108 C27.5195759,10.9374409 27.6603961,9.7472174 28.4269399,8.9830933 L29.9910702,7.42016281 L28.5961367,6.02629931 L27.0376463,7.59486537 C26.273826,8.3579461 25.0861599,8.49852377 24.1650609,7.9348779 C19.5156409,5.10129951 13.5293959,5.81564506 9.6785126,9.66357448 C5.82762931,13.5115039 5.11273539,19.4931571 7.94848898,24.1390106 C8.51513712,25.0623675 8.37192067,26.2538854 7.60257555,27.0169067 L6.03656531,28.5817157 L7.4314988,29.9755792 L8.99750905,28.4107702 C9.76132934,27.6476895 10.9489955,27.5071118 11.8700945,28.0707577 C15.5127383,30.2912873 20.071485,30.3731705 23.7916416,28.28489 C27.5117982,26.1966094 29.8134188,22.2637131 29.8105936,18 Z M8.19095706,18 C8.19175341,14.2094258 10.3763773,10.7579539 13.8035299,9.13281067 C17.2306825,7.5076674 21.2879611,7.99925181 24.2270997,10.395742 L10.4056023,24.208516 C8.96709711,22.4594459 8.18394475,20.263917 8.19095706,18 L8.19095706,18 Z M18.0138177,27.8153012 C15.7513887,27.8201476 13.5578574,27.037724 11.8099356,25.6023795 L25.6239131,11.8008766 C28.0163602,14.7379464 28.504837,18.7881473 26.8792001,22.2090773 C25.2535631,25.6300072 21.8037277,27.8115795 18.0138177,27.8153012 L18.0138177,27.8153012 Z" id="Shape" fill="#0A0A32"></path>
                    <path d="M24.2270997,10.395742 L10.4056023,24.208516 C7.22180454,20.304658 7.51058432,14.6266884 11.0740537,11.0654682 C14.637523,7.50424794 20.319812,7.21491742 24.2270997,10.395742 L24.2270997,10.395742 Z" id="Path" fill="#00FFFF"></path>
                    <path d="M18.0138177,27.8153012 C15.7513887,27.8201476 13.5578574,27.037724 11.8099356,25.6023795 L25.6239131,11.8008766 C28.0163602,14.7379464 28.504837,18.7881473 26.8792001,22.2090773 C25.2535631,25.6300072 21.8037277,27.8115795 18.0138177,27.8153012 L18.0138177,27.8153012 Z" id="Path" fill="#00FFFF"></path>
                </g>
                <g id="lunarHQ" transform="translate(43.113000, 10.783000)">
                    <path d="M15.393,14.217 L15.393,11.886 L4.788,11.886 C3.255,11.886 2.541,11.025 2.541,9.345 L2.541,0 L0,0 L0,9.597 C0,12.684 1.365,14.217 4.263,14.217 L15.393,14.217 Z" id="Path" fill="#FFFFFF"></path>
                    <path d="M35.86,14.217 L35.86,0 L33.361,0 L33.361,11.886 L22.84,11.886 C21.328,11.886 20.593,11.025 20.593,9.345 L20.593,0 L18.031,0 L18.031,9.597 C18.031,12.663 19.417,14.217 22.294,14.217 L35.86,14.217 Z" id="Path" fill="#FFFFFF"></path>
                    <path d="M57.23,14.217 L57.23,4.62 C57.23,1.554 55.865,0 52.967,0 L39.275,0 L39.275,14.217 L41.816,14.217 L41.816,2.331 L52.442,2.331 C53.975,2.331 54.71,3.192 54.71,4.872 L54.71,14.217 L57.23,14.217 Z" id="Path" fill="#FFFFFF"></path>
                    <path d="M78.789,14.217 L78.789,4.62 C78.789,1.533 77.445,0 74.526,0 L60.834,0 L60.834,2.331 L74.001,2.331 C75.534,2.331 76.269,3.171 76.269,4.872 L76.269,5.964 L63.711,5.964 C61.338,5.964 60.477,7.098 60.477,9.177 L60.477,11.004 C60.477,13.083 61.338,14.217 63.711,14.217 L78.789,14.217 Z M76.269,12.096 L64.614,12.096 C63.438,12.096 62.997,11.508 62.997,10.395 L62.997,9.597 C62.997,8.505 63.438,7.917 64.614,7.917 L76.269,7.917 L76.269,12.096 Z" id="Shape" fill="#FFFFFF"></path>
                    <path d="M100.915,14.217 C100.705,14.049 100.558,13.797 100.558,13.293 L100.558,10.668 C100.558,8.421 99.109,7.959 98.164,7.875 C99.025,7.77 100.348,7.392 100.348,4.977 L100.348,3.213 C100.348,1.134 99.487,0 97.114,0 L82.12,0 L82.12,14.217 L84.661,14.217 L84.661,8.988 L96.064,8.988 C97.24,8.988 98.038,9.45 98.038,10.668 L98.038,13.293 C98.038,13.797 98.164,14.049 98.395,14.217 L100.915,14.217 Z M97.828,5.376 C97.828,6.636 97.093,7.035 96.001,7.035 L84.661,7.035 L84.661,2.121 L96.211,2.121 C97.387,2.121 97.828,2.709 97.828,3.801 L97.828,5.376 Z" id="Shape" fill="#FFFFFF"></path>
                    <polygon id="Path" fill="#00FFFF" points="121.172 14.217 121.172 0 118.652 0 118.652 5.691 106.136 5.691 106.136 0 103.595 0 103.595 14.217 106.136 14.217 106.136 7.875 118.652 7.875 118.652 14.217"></polygon>
                    <path d="M143.97,14.217 L143.97,11.886 L142.185,11.886 L142.185,4.62 C142.185,1.533 140.841,0 137.922,0 L128.871,0 C125.931,0 124.587,1.533 124.587,4.62 L124.587,9.597 C124.587,12.684 125.931,14.217 128.871,14.217 L143.97,14.217 Z M139.749,11.886 L129.396,11.886 C127.842,11.886 127.128,11.025 127.128,9.345 L127.128,4.872 C127.128,3.171 127.842,2.331 129.396,2.331 L137.502,2.331 C139.035,2.331 139.749,3.171 139.749,4.872 L139.749,11.886 Z" id="Shape" fill="#00FFFF"></path>
                </g>
            </g>
        </g>
    </g>
</svg>
