<?xml version="1.0" encoding="UTF-8"?>
<svg width="139px" height="14px" viewBox="0 0 139 14" version="1.1" xmlns="http://www.w3.org/2000/svg" xmlns:xlink="http://www.w3.org/1999/xlink">
    <title>lunarHQ</title>
    <g id="Atoms" stroke="none" stroke-width="1" fill="none" fill-rule="evenodd">
        <g id="molecule/section/light/sidebar_title-mapimo-copy" transform="translate(-88.000000, -33.000000)" fill-rule="nonzero">
            <g id="lunarHQ" transform="translate(88.000000, 33.000000)">
                <path d="M14.861617,14 L14.861617,11.704579 L4.62271307,11.704579 C3.14263388,11.704579 2.45328193,10.8567208 2.45328193,9.20236337 L2.45328193,0 L0,0 L0,9.45051699 C0,12.4903988 1.31787872,14 4.11583663,14 L14.861617,14 Z" id="Path" fill="#FFFFFF"></path>
                <path d="M34.622074,14 L34.622074,0 L32.2093422,0 L32.2093422,11.704579 L22.0515385,11.704579 C20.5917344,11.704579 19.8821074,10.8567208 19.8821074,9.20236337 L19.8821074,0 L17.4085504,0 L17.4085504,9.45051699 C17.4085504,12.4697194 18.7467042,14 21.524387,14 L34.622074,14 Z" id="Path" fill="#FFFFFF"></path>
                <path d="M55.2543585,14 L55.2543585,4.54948301 C55.2543585,1.53028065 53.9364798,0 51.1385219,0 L37.9191846,0 L37.9191846,14 L40.3724665,14 L40.3724665,2.29542097 L50.6316455,2.29542097 C52.1117247,2.29542097 52.8213517,3.14327917 52.8213517,4.79763663 L52.8213517,14 L55.2543585,14 Z" id="Path" fill="#FFFFFF"></path>
                <path d="M76.0691186,14 L76.0691186,4.54948301 C76.0691186,1.50960118 74.7715149,0 71.9532819,0 L58.7339446,0 L58.7339446,2.29542097 L71.4464055,2.29542097 C72.9264847,2.29542097 73.6361117,3.1225997 73.6361117,4.79763663 L73.6361117,5.87296898 L61.5116274,5.87296898 C59.2205459,5.87296898 58.3892686,6.98966027 58.3892686,9.03692762 L58.3892686,10.8360414 C58.3892686,12.8833087 59.2205459,14 61.5116274,14 L76.0691186,14 Z M73.6361117,11.9113737 L62.3834549,11.9113737 C61.2480517,11.9113737 60.8222755,11.3323486 60.8222755,10.2363368 L60.8222755,9.45051699 C60.8222755,8.37518464 61.2480517,7.79615953 62.3834549,7.79615953 L73.6361117,7.79615953 L73.6361117,11.9113737 Z" id="Shape" fill="#FFFFFF"></path>
                <path d="M97.4313051,14 C97.2285546,13.8345643 97.0866292,13.5864106 97.0866292,13.0901034 L97.0866292,10.5051699 C97.0866292,8.29246677 95.6876502,7.83751846 94.7752726,7.75480059 C95.60655,7.65140325 96.8838786,7.27917282 96.8838786,4.90103397 L96.8838786,3.16395864 C96.8838786,1.11669129 96.0526012,0 93.7615198,0 L79.2851288,0 L79.2851288,14 L81.7384108,14 L81.7384108,8.85081241 L92.7477669,8.85081241 C93.8831701,8.85081241 94.6536223,9.30576071 94.6536223,10.5051699 L94.6536223,13.0901034 C94.6536223,13.5864106 94.7752726,13.8345643 94.9982983,14 L97.4313051,14 Z M94.4508717,5.29394387 C94.4508717,6.53471196 93.7412447,6.92762186 92.6869417,6.92762186 L81.7384108,6.92762186 L81.7384108,2.08862629 L92.8896923,2.08862629 C94.0250955,2.08862629 94.4508717,2.6676514 94.4508717,3.74298375 L94.4508717,5.29394387 Z" id="Shape" fill="#FFFFFF"></path>
                <polygon id="Path" fill="#00FFFF" points="116.989012 14 116.989012 0 114.556005 0 114.556005 5.60413589 102.472071 5.60413589 102.472071 0 100.018789 0 100.018789 14 102.472071 14 102.472071 7.75480059 114.556005 7.75480059 114.556005 14"></polygon>
                <path d="M139,14 L139,11.704579 L137.27662,11.704579 L137.27662,4.54948301 C137.27662,1.50960118 135.979016,0 133.160783,0 L124.422234,0 C121.583726,0 120.286122,1.50960118 120.286122,4.54948301 L120.286122,9.45051699 C120.286122,12.4903988 121.583726,14 124.422234,14 L139,14 Z M134.924713,11.704579 L124.92911,11.704579 C123.428756,11.704579 122.739404,10.8567208 122.739404,9.20236337 L122.739404,4.79763663 C122.739404,3.1225997 123.428756,2.29542097 124.92911,2.29542097 L132.755282,2.29542097 C134.235362,2.29542097 134.924713,3.1225997 134.924713,4.79763663 L134.924713,11.704579 Z" id="Shape" fill="#00FFFF"></path>
            </g>
        </g>
    </g>
</svg>