<?xml version="1.0" encoding="UTF-8"?>
<svg width="24px" height="24px" viewBox="0 0 24 24"
     xmlns="http://www.w3.org/2000/svg">
  <g id="Atoms" stroke="none" stroke-width="1" fill="none" fill-rule="evenodd">
    <g id="atom/icons/ballot/line" fill="#C4C4C4B3" fill-rule="nonzero">
      <g id="vote-svgrepo-com">
        <path
          d="M22.199709,16.200005 L1.80017102,16.200005 L1.80017102,22.200005 L22.199709,22.200005 L22.199709,16.200005 Z M23.9356739,14.9662858 L23.9615964,15.0403257 L23.989319,15.1614057 L24,15.2797256 L24,23.1000006 C24,23.5556403 23.6613278,23.9322 23.2220861,23.99184 L23.0999145,24 L0.900085508,24 C0.444402218,24 0.0678184428,23.6613602 0.00822078097,23.2221605 L0,23.1000006 L0,15.3007256 L0.00220820978,15.2372456 L0.0152534491,15.1346457 C0.0274226051,15.0700857 0.0460963792,15.0086458 0.0707347198,14.9504458 L3.38220931,7.72804643 C3.5105375,7.44817061 3.77129827,7.25619473 4.07022267,7.21257476 L4.20039904,7.20313076 L7.2484726,7.20220676 L6.30166666,8.84648171 L6.2199749,9.00220561 L4.77765388,9.00240961 L2.30181867,14.3997662 L21.6860602,14.3997662 L19.2531891,9.18460549 L20.2881674,7.38784664 C20.368095,7.44887861 20.4380616,7.52349456 20.494467,7.6093305 L20.557593,7.72264643 L23.9356739,14.9662858 Z M13.6395358,0.066795336 L13.7492262,0.120759301 L19.9755377,3.72451299 C20.3694151,3.95246485 20.52591,4.43426454 20.358254,4.84474827 L20.3043689,4.9546922 L16.9360089,10.8012085 L18.3017387,10.8019285 C18.7988259,10.8019285 19.2018242,11.2048882 19.2018242,11.7019279 C19.2018242,12.1575676 18.863152,12.5341273 18.4239103,12.5937673 L18.3017387,12.6019273 L15.8991104,12.6012073 L15.8980303,12.6048073 L11.0039654,12.6048073 L11.000245,12.6012073 L5.70054155,12.6019273 C5.20344233,12.6019273 4.80045604,12.1989676 4.80045604,11.7019279 C4.80045604,11.2462882 5.13906821,10.8697284 5.57840595,10.8102085 L5.70054155,10.8019285 L7.88834939,10.8012085 L7.67046869,10.6755685 C7.27661528,10.4475687 7.12009641,9.96576899 7.28781234,9.55527326 L7.34166146,9.44532933 L12.5221096,0.45044709 C12.7494112,0.0556113432 13.2300569,-0.101300556 13.6395358,0.066795336 Z M13.6283747,2.13036201 L9.34625989,9.56543725 L11.4802906,10.8012085 L14.8610118,10.8012085 L18.2993384,4.83382828 L13.6283747,2.13036201 Z"
          id="Shape"></path>
      </g>
    </g>
  </g>
</svg>
