<?xml version="1.0" encoding="UTF-8"?>
<svg width="90px" height="31px" viewBox="0 0 90 31" xmlns="http://www.w3.org/2000/svg" xmlns:xlink="http://www.w3.org/1999/xlink">
    <title>Combined Shape</title>
    <g id="Cross-chain" stroke="none" stroke-width="1" fill="none" fill-rule="evenodd" fill-opacity="0.5">
        <g id="LA2022-Flow-3" transform="translate(-675.000000, -749.000000)" fill="#C4C4C4" fill-rule="nonzero">
            <g id="Group-3" transform="translate(586.000000, 670.000000)">
                <g id="Group-2" transform="translate(89.000000, 79.200000)">
                    <path d="M53.1143321,30.7963238 L62.7236634,30.786138 L62.7236634,28.1091479 L56.0785301,28.1091479 L56.0785301,20.1103489 L53.1143321,14.8 L53.1143321,30.7963238 Z M75.0401153,14.8179696 L65.4103399,14.8179696 L66.9534144,17.4949597 L75.0401153,17.4949597 L75.0401153,14.8179696 Z M75.0401153,30.786138 L65.4103399,30.786138 L66.9534144,28.1091479 L75.0401153,28.1091479 L75.0401153,30.786138 Z M75.0401153,24.1813193 L65.4103399,24.1813193 L65.4103399,21.5043292 L75.0401153,21.5043292 L75.0401153,24.1813193 Z M12.2732082,30.8 L9.00197598,25.0664466 C9.93946326,24.6868734 10.7173782,24.0475921 11.3357209,23.1486029 C11.9740101,22.2496137 12.2732082,21.2507368 12.2732082,20.1319947 C12.2732082,18.6736344 11.7545982,17.435027 10.7173782,16.3762175 C9.68015827,15.3373856 8.42352637,14.8179696 6.9674291,14.8179696 L1.95723424e-15,14.8179696 L1.54315595,17.4949597 L6.9674291,17.4949597 C7.68550447,17.4949597 8.30384715,17.7546677 8.82245713,18.2740836 C9.36101366,18.7934996 9.62031865,19.4128033 9.62031865,20.1319947 C9.62031865,20.8711636 9.36101366,21.5104448 8.82245713,22.0298608 C8.30384715,22.5492768 7.68550447,22.8089848 6.9674291,22.8089848 L4.59379108,22.7890072 L9.22138789,30.8 L12.2732082,30.8 Z M90,30.8 L86.7287678,25.0664466 C87.6662551,24.6868734 88.44417,24.0475921 89.0625127,23.1486029 C89.7008019,22.2496137 90,21.2507368 90,20.1319947 C90,18.6736344 89.48139,17.435027 88.44417,16.3762175 C87.4069501,15.3373856 86.1503182,14.8179696 84.6942209,14.8179696 L77.7267918,14.8179696 L79.2699477,17.4949597 L84.6942209,17.4949597 C85.4122963,17.4949597 86.0306389,17.7546677 86.5492489,18.2740836 C87.0878055,18.7934996 87.3471104,19.4128033 87.3471104,20.1319947 C87.3471104,20.8711636 87.0878055,21.5104448 86.5492489,22.0298608 C86.0306389,22.5492768 85.4122963,22.8089848 84.6942209,22.8089848 L82.3205829,22.7890072 L86.9481797,30.8 L90,30.8 Z M18.7382272,30.7963238 L15.7740292,25.4859749 L15.7740292,14.8041076 L18.7382272,14.8 L18.7382272,30.7963238 Z M40.7731241,30.7963238 L40.7731241,25.4822987 L45.1218764,25.4822987 C46.5779737,25.4822987 47.8346056,24.9628827 48.8718256,23.9240507 C49.9289921,22.8852187 50.4276555,21.6066563 50.4276555,20.148296 C50.4276555,18.6899357 49.9090455,17.4313508 48.8718256,16.3725413 C47.8346056,15.3337093 46.5779737,14.8142934 45.1218764,14.8142934 L38.0837623,14.8142934 L39.6256603,17.4912835 L45.1218764,17.4912835 C45.8399518,17.4912835 46.4582945,17.7509914 46.9769045,18.2704074 C47.515461,18.7898234 47.774766,19.4291046 47.774766,20.148296 C47.774766,20.8874649 47.4955144,21.5067686 46.9769045,22.0261846 C46.4582945,22.5456006 45.8399518,22.8053086 45.1218764,22.8053086 L38.1202345,22.8053086 L38.1202345,30.7963238 L40.7731241,30.7963238 Z M25.7425543,30.7963238 L25.7425543,25.4822987 L30.0913067,25.4822987 C31.5474039,25.4822987 32.8040358,24.9628827 33.8412558,23.9240507 C34.8984223,22.8852187 35.3970858,21.6066563 35.3970858,20.148296 C35.3970858,18.6899357 34.8784758,17.4313508 33.8412558,16.3725413 C32.8040358,15.3337093 31.5474039,14.8142934 30.0913067,14.8142934 L23.0531925,14.8142934 L24.5950905,17.4912835 L30.0913067,17.4912835 C30.809382,17.4912835 31.4277247,17.7509914 31.9463347,18.2704074 C32.4848912,18.7898234 32.7441962,19.4291046 32.7441962,20.148296 C32.7441962,20.8874649 32.4649447,21.5067686 31.9463347,22.0261846 C31.4277247,22.5456006 30.809382,22.8053086 30.0913067,22.8053086 L23.0896648,22.8053086 L23.0896648,30.7963238 L25.7425543,30.7963238 Z M16.192,5.8 L16.192,3.624 L16.992,3.624 C17.632,3.624 18.1413333,3.47866667 18.52,3.188 C18.8986667,2.89733333 19.088,2.46133333 19.088,1.88 L19.088,1.88 L19.088,1.848 C19.088,1.26133333 18.9,0.82 18.524,0.524 C18.148,0.228 17.6293333,0.08 16.968,0.08 L16.968,0.08 L15.128,0.08 L15.128,5.8 L16.192,5.8 Z M16.968,2.856 L16.192,2.856 L16.192,0.904 L16.968,0.904 C17.688,0.904 18.048,1.21866667 18.048,1.848 L18.048,1.848 L18.048,1.88 C18.048,2.19466667 17.956,2.436 17.772,2.604 C17.588,2.772 17.32,2.856 16.968,2.856 L16.968,2.856 Z M23.648,5.88 C24.5066667,5.88 25.2013333,5.604 25.732,5.052 C26.2626667,4.5 26.528,3.8 26.528,2.952 L26.528,2.952 L26.528,2.888 C26.528,2.04533333 26.26,1.35333333 25.724,0.812 C25.188,0.270666667 24.496,1.82076576e-13 23.648,1.82076576e-13 C22.8053333,1.82076576e-13 22.112,0.276 21.568,0.828 C21.024,1.38 20.752,2.07466667 20.752,2.912 L20.752,2.912 L20.752,2.976 C20.752,3.81333333 21.0186667,4.50666667 21.552,5.056 C22.0853333,5.60533333 22.784,5.88 23.648,5.88 Z M23.664,5.024 C23.136,5.024 22.704,4.836 22.368,4.46 C22.032,4.084 21.864,3.58666667 21.864,2.968 L21.864,2.968 L21.864,2.904 C21.864,2.28 22.0226667,1.78133333 22.34,1.408 C22.6573333,1.03466667 23.0933333,0.848 23.648,0.848 C24.1973333,0.848 24.6306667,1.03866667 24.948,1.42 C25.2653333,1.80133333 25.424,2.29333333 25.424,2.896 L25.424,2.896 L25.424,2.96 C25.424,3.584 25.2653333,4.084 24.948,4.46 C24.6306667,4.836 24.2026667,5.024 23.664,5.024 Z M30.344,5.8 L31.504,1.632 L32.632,5.8 L33.696,5.8 L35.128,0.08 L34.136,0.08 L33.112,4.304 L31.976,0.08 L31.096,0.08 L29.984,4.28 L28.992,0.08 L27.904,0.08 L29.328,5.8 L30.344,5.8 Z M40.704,5.8 L40.704,4.96 L38.056,4.96 L38.056,3.288 L40.072,3.288 L40.072,2.488 L38.056,2.488 L38.056,0.92 L40.568,0.92 L40.568,0.08 L36.992,0.08 L36.992,5.8 L40.704,5.8 Z M43.728,5.8 L43.728,3.488 L44.408,3.488 L45.904,5.8 L47.056,5.8 L45.448,3.328 C46.296,3.10933333 46.72,2.59733333 46.72,1.792 L46.72,1.792 L46.72,1.76 C46.72,1.19466667 46.528,0.773333333 46.144,0.496 C45.76,0.218666667 45.24,0.08 44.584,0.08 L44.584,0.08 L42.664,0.08 L42.664,5.8 L43.728,5.8 Z M44.584,2.728 L43.728,2.728 L43.728,0.904 L44.584,0.904 C44.9413333,0.904 45.212,0.972 45.396,1.108 C45.58,1.244 45.672,1.46933333 45.672,1.784 L45.672,1.784 L45.672,1.816 C45.672,2.424 45.3093333,2.728 44.584,2.728 L44.584,2.728 Z M52.616,5.8 L52.616,4.96 L49.968,4.96 L49.968,3.288 L51.984,3.288 L51.984,2.488 L49.968,2.488 L49.968,0.92 L52.48,0.92 L52.48,0.08 L48.904,0.08 L48.904,5.8 L52.616,5.8 Z M56.296,5.8 C57.2666667,5.8 58.0053333,5.54133333 58.512,5.024 C59.0186667,4.50666667 59.272,3.816 59.272,2.952 L59.272,2.952 L59.272,2.88 C59.272,2.02133333 59.0213333,1.34 58.52,0.836 C58.0186667,0.332 57.2826667,0.08 56.312,0.08 L56.312,0.08 L54.576,0.08 L54.576,5.8 Z M56.264,4.96 L55.64,4.96 L55.64,0.92 L56.256,0.92 C57.5253333,0.92 58.16,1.57866667 58.16,2.896 L58.16,2.896 L58.16,2.96 C58.16,3.60533333 58.0013333,4.1 57.684,4.444 C57.3666667,4.788 56.8933333,4.96 56.264,4.96 L56.264,4.96 Z M66.392,5.8 C67.0266667,5.8 67.512,5.66533333 67.848,5.396 C68.184,5.12666667 68.352,4.728 68.352,4.2 L68.352,4.2 L68.352,4.168 C68.352,3.78933333 68.2586667,3.49066667 68.072,3.272 C67.8853333,3.05333333 67.5973333,2.90133333 67.208,2.816 C67.8106667,2.62933333 68.112,2.224 68.112,1.6 L68.112,1.6 L68.112,1.568 C68.112,0.576 67.488,0.08 66.24,0.08 L66.24,0.08 L64.192,0.08 L64.192,5.8 Z M66.112,2.488 L65.232,2.488 L65.232,0.84 L66.096,0.84 C66.4373333,0.84 66.688,0.901333333 66.848,1.024 C67.008,1.14666667 67.088,1.344 67.088,1.616 L67.088,1.616 L67.088,1.648 C67.088,1.94133333 67.012,2.15466667 66.86,2.288 C66.708,2.42133333 66.4586667,2.488 66.112,2.488 L66.112,2.488 Z M66.264,5.04 L65.232,5.04 L65.232,3.208 L66.192,3.208 C66.576,3.208 66.8573333,3.28133333 67.036,3.428 C67.2146667,3.57466667 67.304,3.79733333 67.304,4.096 L67.304,4.096 L67.304,4.128 C67.304,4.736 66.9573333,5.04 66.264,5.04 L66.264,5.04 Z M72.6,5.8 L72.6,3.328 L74.392,0.08 L73.352,0.08 L72.096,2.448 L70.808,0.08 L69.632,0.08 L71.528,3.32 L71.528,5.8 L72.6,5.8 Z" id="Combined-Shape"></path>
                </g>
            </g>
        </g>
    </g>
</svg>
